PathFileType	4	(X/Y/Z)	Patient4_TMGait_0pt4_01_left_14.trc.trc
DataRate	CameraRate	NumFrames	NumMarkers	Units	OrigDataRate	OrigDataStartFrame	OrigNumFrames
78.651685393258	78.651685393258	4	33	mm	78.651685393258	36	       141
Frame#	Time	Sacral			L.Shoulder			Chest			R.Shoulder			Neck			R.ASIS			L.ASIS			R.Thigh.Superior			R.Thigh.Lateral			R.Thigh.Inferior			R.Patella			L.Thigh.Superior			L.Thigh.Lateral			L.Thigh.Inferior			L.Patella			L.Shank.Superior			L.Shank.Lateral			L.Shank.Inferior			R.Shank.Superior			R.Shank.Lateral			R.Shank.Inferior			R.Heel			R.Midfoot.Superior			R.Midfoot.Lateral			R.Toe			L.Heel			L.Midfoot.Lateral			L.Midfoot.Superior			L.Toe			L.Elbow			L.Wrist			R.Elbow			R.Wrist			
		X1	Y1	Z1	X2	Y2	Z2	X3	Y3	Z3	X4	Y4	Z4	X5	Y5	Z5	X6	Y6	Z6	X7	Y7	Z7	X8	Y8	Z8	X9	Y9	Z9	X10	Y10	Z10	X11	Y11	Z11	X12	Y12	Z12	X13	Y13	Z13	X14	Y14	Z14	X15	Y15	Z15	X16	Y16	Z16	X17	Y17	Z17	X18	Y18	Z18	X19	Y19	Z19	X20	Y20	Z20	X21	Y21	Z21	X22	Y22	Z22	X23	Y23	Z23	X24	Y24	Z24	X25	Y25	Z25	X26	Y26	Z26	X27	Y27	Z27	X28	Y28	Z28	X29	Y29	Z29	X30	Y30	Z30	X31	Y31	Z31	X32	Y32	Z32	X33	Y33	Z33	

36	17.825000000000	838.062352206830	1007.665990658662	493.821331062896	1003.038310022767	1430.795603391079	299.091161405260	1120.054929726855	1363.059797751116	450.044172494634	1055.008079409261	1438.992136717495	630.867163570770	1001.431492841634	1494.945832540302	457.768283667384	1071.567352894588	941.256237594810	597.012831618033	1042.202734043723	958.312891911012	323.530826685433	1073.116444958180	729.528426684155	578.080958264126	971.231984451418	634.759087692173	642.891047324463	1037.588315718992	566.956396373849	568.077426440014	1019.262729047370	474.490193122078	579.956076422497	1111.627016532670	762.741129062761	360.104541572491	1043.162427502666	634.763555309674	296.750013068720	1140.207568447358	568.237996610136	357.604860752479	1150.294933783979	495.613131225516	364.960171088455	1121.739412935310	421.155513261480	357.834778345024	1031.881299739284	308.006845505778	304.458360704100	1082.156808102492	194.624842772880	372.101684605545	966.063558422604	396.858027940282	586.698675224569	865.596758953710	318.564573512009	646.713886576888	887.626888174308	212.624322589850	589.778349636002	720.993858423205	69.129509481618	559.668044280178	898.120336965076	100.342239781968	594.250949703831	803.850288386847	46.232088772223	630.435082618961	1010.278222695674	37.815426192270	615.754567958864	954.396331450049	39.050293885230	408.428968182379	1029.690992450687	36.689616285369	329.473971467080	1112.423305470384	97.238200583960	357.963036248055	1241.320787239425	45.239980656390	331.250588852471	923.522241861331	1082.521379599359	199.529037510494	978.552533467249	825.993718699606	185.997842102307	1121.664980120948	1102.949201048354	763.144245387447	1353.031795558945	996.160573317202	732.382016661788	
37	17.837714285714	838.157896054894	1008.234890214984	489.666806849197	1004.597219958818	1431.283722623257	295.658491277036	1120.825650000173	1363.488693081144	447.166326789252	1054.999730225689	1439.619198522576	627.619209331338	1002.200335148167	1495.388344146083	454.394446718855	1071.301596192563	941.834638251075	593.978702803111	1043.347528324547	958.541685453558	320.433142098405	1074.774900738738	730.252397575836	575.900407453598	973.880764005285	634.859918651870	641.004906834063	1041.499954529464	567.130615891540	566.700542472118	1024.075032976920	473.233872685959	579.990273255623	1111.677070896720	762.154092526471	356.399983102214	1041.252915828595	634.508933493928	294.199842753635	1138.053045720151	567.349283063881	354.469996294155	1147.521324811524	494.922788468130	362.428629363092	1118.671884275651	420.493821639397	355.785706717059	1028.208146868349	307.569435270353	302.720519201055	1077.730146055720	194.291993589814	371.215818737148	968.752262757864	396.635287834575	586.323042796662	866.265230982771	320.727937361086	646.052145352814	886.641338722128	214.020642780106	589.922773349253	717.207848243388	73.804184053385	560.085780335919	894.780122536433	100.794031057360	594.338839683611	799.572618910063	48.536370670363	630.558387402212	1005.360960969467	37.556976810331	615.646059212573	949.279953819712	39.068969237238	408.283603303734	1024.564942701872	36.569443156751	329.275399727988	1107.362418688693	97.089663053803	357.682561432347	1236.288402386658	44.911340370304	331.171869639706	928.419208179919	1082.575632305167	194.389516506459	987.376700403186	826.989322513680	179.815518019127	1116.187603189725	1102.890202012460	761.337190951641	1343.297054263973	985.231283849848	736.429286265189	
38	17.850428571429	838.190468547278	1008.685165013738	485.517114220683	1006.208042824482	1431.675506755560	292.175535075763	1121.531347299248	1363.866241481488	444.331853671223	1054.789929374570	1440.200689657008	624.365351904552	1002.895978299439	1495.757542532491	450.975878302376	1070.935269489904	942.382785779679	591.056496911005	1044.514113391059	958.673916574753	317.469661576975	1076.963985008512	731.055853120250	573.862925606974	977.288325628005	634.826419927069	639.193464538511	1046.379769841691	567.323650735344	565.438555742019	1029.892956994722	471.926662594811	580.119091358219	1111.583506193746	761.342161404657	352.793592504688	1039.342991869653	634.229550169692	291.615726973827	1135.766402066699	566.424128226357	351.499168467502	1144.599097328520	494.185552256866	359.913180149775	1115.468663985111	419.801182106989	353.688106636964	1024.398955325177	307.083878646780	300.950899040784	1073.228870419682	193.935601394543	370.309109874438	972.391209420522	396.384138617986	585.999256526270	867.849547557393	323.082185813160	645.459908428006	886.272014492774	215.645787666858	590.093618862809	713.794787260529	79.316316059594	560.521241635125	891.761415068787	101.426463988913	594.437589127389	795.491872596284	51.412095603374	630.685638716641	1000.452339790961	37.225358641138	615.543836273007	944.147540653534	39.069515096009	408.130228819421	1019.432394964276	36.430566979160	329.072172253077	1102.293527973108	96.913455222139	357.404957299946	1231.249606800760	44.559704700061	331.123143476460	933.385241447383	1082.583843732358	189.215997676894	996.503551631973	828.051741030601	173.607294817309	1110.394941261069	1102.851839175776	759.438371477898	1332.451727320953	974.199274752766	740.328769947134	
39	17.863142857143	838.168093027614	1009.011514323248	481.438159209172	1007.872916723896	1431.955058551295	288.662747297598	1122.174118956479	1364.172348389775	441.559579488786	1054.396020982400	1440.733824119356	621.120080111891	1003.523779740711	1496.048684166709	447.522683312900	1070.464064976401	942.888212154095	588.261854914242	1045.648863731355	958.722389176345	314.648327427937	1079.680204465878	731.968901039121	571.966806630751	981.499796161247	634.684478767772	637.473092576712	1052.252630231490	567.581684232749	564.292863425413	1036.728165579829	470.640237701934	580.313963078599	1111.336065142753	760.374435646565	349.323326499580	1037.449895247017	633.946303882081	289.034806486703	1133.371026289787	565.489314649496	348.711545608138	1141.556453687954	493.424563069593	357.456885598455	1112.158691153083	419.096894698303	351.591524466148	1020.495540429435	306.575688856255	299.186203324063	1068.677551510484	193.570005522572	369.398841603486	977.019983251018	396.149832253526	585.722037689755	870.417376166520	325.679768165047	644.950682301088	886.565032224000	217.571715642408	590.296754627031	710.838594136037	85.804474756254	560.978710805424	889.114615564973	102.352239489562	594.596376291818	791.653838999908	54.987226234745	630.828438710465	995.569100840695	36.787900210231	615.475252654424	939.013450219889	39.062228948400	407.969138287376	1014.304386536929	36.287534232301	328.864980518109	1097.225561606645	96.727268637808	357.131634066250	1226.211489250302	44.205801332663	331.088438239646	938.455346149869	1082.527484222935	184.028136764309	1005.921936825958	829.165583985039	167.409475799131	1104.242662822720	1102.832257401542	757.468867803758	1320.468697043000	963.207390230474	744.019911136287	
